<?xml version="1.0" standalone="no"?>
<!DOCTYPE svg PUBLIC "-//W3C//DTD SVG 20010904//EN"
 "http://www.w3.org/TR/2001/REC-SVG-20010904/DTD/svg10.dtd">
<svg version="1.0" xmlns="http://www.w3.org/2000/svg"
 width="403.000000pt" height="213.000000pt" viewBox="0 0 403.000000 213.000000"
 preserveAspectRatio="xMidYMid meet">

<g transform="translate(0.000000,213.000000) scale(0.100000,-0.100000)"
fill="#000000" stroke="none">
<path d="M0 1065 l0 -1065 2015 0 2015 0 0 1065 0 1065 -2015 0 -2015 0 0
-1065z m867 622 c18 -50 87 -250 153 -442 l121 -351 -78 -264 -79 -265 -215
-3 -216 -2 72 247 71 248 -173 455 c-95 250 -172 458 -173 463 0 4 109 7 243
7 l242 0 32 -93z m758 -297 c-214 -214 -393 -390 -396 -390 -3 0 -34 79 -68
176 l-61 177 42 46 c23 25 114 121 202 214 l159 167 256 0 256 0 -390 -390z
m2195 383 c0 -3 -21 -80 -47 -170 l-47 -163 -694 0 c-656 0 -693 1 -688 18 3
9 24 80 46 157 23 77 43 146 45 153 3 9 151 12 695 12 379 0 690 -3 690 -7z
m-260 -447 c0 -1 -193 -142 -430 -312 l-429 -309 404 -3 405 -2 -5 -23 c-4
-12 -25 -87 -49 -167 l-42 -145 -693 -3 c-657 -2 -693 -1 -689 15 3 10 25 86
49 169 l44 151 158 114 c302 218 395 284 486 349 51 36 125 89 164 118 l72 52
277 0 c153 0 278 -2 278 -4z"/>
</g>
</svg>
