<svg xmlns="http://www.w3.org/2000/svg" version="1.1" xmlns:xlink="http://www.w3.org/1999/xlink" xmlns:svgjs="http://svgjs.dev/svgjs" width="2000" height="388" viewBox="0 0 2000 388"><g transform="matrix(1,0,0,1,-1.2121211916619359,0.5055359322696233)"><svg viewBox="0 0 396 77" data-background-color="#282634" preserveAspectRatio="xMidYMid meet" height="388" width="2000" xmlns="http://www.w3.org/2000/svg" xmlns:xlink="http://www.w3.org/1999/xlink"><g id="tight-bounds" transform="matrix(1,0,0,1,0.24000000405101218,-0.10032542985763371)"><svg viewBox="0 0 395.52 77.20065085971528" height="77.20065085971528" width="395.52"><g><svg viewBox="0 0 512.6836362684721 100.06955502895322" height="77.20065085971528" width="395.52"><g transform="matrix(1,0,0,1,0,13.830162815144767)"><svg viewBox="0 0 395.52 72.40922939866368" height="72.40922939866368" width="395.52"><g id="textblocktransform"><svg viewBox="0 0 395.52 72.40922939866368" height="72.40922939866368" width="395.52" id="textblock"><g><svg viewBox="0 0 395.52 72.40922939866368" height="72.40922939866368" width="395.52"><g transform="matrix(1,0,0,1,0,0)"><svg width="395.52" viewBox="0.15000000596046448 -34.900001525878906 224.48001098632812 41.10000228881836" height="72.40922939866368" data-palette-color="#ff4057"><path d="M10.85 0L10.85-13.4 0.15-34.3 6.25-34.3 13.8-18.95 14-18.95 21.5-34.3 27.2-34.3 16.55-13.4 16.55 0 10.85 0ZM42.15 0.6Q36.65 0.6 33.6-2.35 30.55-5.3 30.55-10.9L30.55-10.9 30.55-34.3 36.25-34.3 36.25-10.95Q36.25-7.8 37.8-6.1 39.35-4.4 42.15-4.4L42.15-4.4Q44.95-4.4 46.5-6.1 48.05-7.8 48.05-10.95L48.05-10.95 48.05-34.3 53.8-34.3 53.8-10.9Q53.8-5.3 50.72-2.35 47.65 0.6 42.15 0.6L42.15 0.6ZM78.8 6.2L73.5 0.6 72.9 0.6Q66.2 0.6 62.55-3.85 58.9-8.3 58.9-17.15L58.9-17.15Q58.9-26 62.55-30.45 66.2-34.9 72.9-34.9L72.9-34.9Q79.6-34.9 83.25-30.45 86.9-26 86.9-17.15L86.9-17.15Q86.9-10.7 84.9-6.58 82.9-2.45 79.2-0.7L79.2-0.7 86 6.2 78.8 6.2ZM72.9-4.4Q76.8-4.4 78.9-7.38 81-10.35 81-15.9L81-15.9 81-18.4Q81-23.95 78.9-26.93 76.8-29.9 72.9-29.9L72.9-29.9Q69-29.9 66.9-26.93 64.8-23.95 64.8-18.4L64.8-18.4 64.8-15.9Q64.8-10.35 66.9-7.38 69-4.4 72.9-4.4L72.9-4.4ZM91.69 0L91.69-34.3 97.39-34.3 97.39 0 91.69 0ZM112.49 0L112.49-2.25 127.34-29.2 113.54-29.2 113.54-34.3 135.29-34.3 135.29-32 120.39-5.1 135.64-5.1 135.64 0 112.49 0ZM139.84 0L139.84-34.3 145.59-34.3 145.59-20.1 157.39-20.1 157.39-34.3 163.14-34.3 163.14 0 157.39 0 157.39-15 145.59-15 145.59 0 139.84 0ZM182.23 0.6Q175.53 0.6 171.88-3.85 168.23-8.3 168.23-17.15L168.23-17.15Q168.23-26 171.88-30.45 175.53-34.9 182.23-34.9L182.23-34.9Q188.93-34.9 192.58-30.45 196.23-26 196.23-17.15L196.23-17.15Q196.23-8.3 192.58-3.85 188.93 0.6 182.23 0.6L182.23 0.6ZM182.23-4.4Q186.13-4.4 188.23-7.38 190.33-10.35 190.33-15.9L190.33-15.9 190.33-18.4Q190.33-23.95 188.23-26.93 186.13-29.9 182.23-29.9L182.23-29.9Q178.33-29.9 176.23-26.93 174.13-23.95 174.13-18.4L174.13-18.4 174.13-15.9Q174.13-10.35 176.23-7.38 178.33-4.4 182.23-4.4L182.23-4.4ZM212.98 0.6Q207.48 0.6 204.43-2.35 201.38-5.3 201.38-10.9L201.38-10.9 201.38-34.3 207.08-34.3 207.08-10.95Q207.08-7.8 208.63-6.1 210.18-4.4 212.98-4.4L212.98-4.4Q215.78-4.4 217.33-6.1 218.88-7.8 218.88-10.95L218.88-10.95 218.88-34.3 224.63-34.3 224.63-10.9Q224.63-5.3 221.56-2.35 218.48 0.6 212.98 0.6L212.98 0.6Z" opacity="1" transform="matrix(1,0,0,1,0,0)" fill="#ff4057" class="undefined-text-0" data-fill-palette-color="primary" id="text-0"></path></svg></g></svg></g></svg></g></svg></g><g transform="matrix(1,0,0,1,412.6140812395189,0)"><svg viewBox="0 0 100.06955502895322 100.06955502895322" height="100.06955502895322" width="100.06955502895322"><g data-palette-color="#dcdcdc"><rect width="27.352345041247215" height="100.06955502895322" fill="#dcdcdc" stroke="transparent" data-fill-palette-color="accent" x="0" fill-opacity="1"></rect><rect width="27.352345041247215" height="100.06955502895322" fill="#dcdcdc" stroke="transparent" data-fill-palette-color="accent" x="33.35651834298441" fill-opacity="0.75"></rect><rect width="27.352345041247215" height="100.06955502895322" fill="#dcdcdc" stroke="transparent" data-fill-palette-color="accent" x="66.71303668596882" fill-opacity="0.5"></rect></g></svg></g></svg></g><defs></defs></svg><rect width="395.52" height="77.20065085971528" fill="none" stroke="none" visibility="hidden"></rect></g></svg></g></svg>